<svg xmlns:xlink="http://www.w3.org/1999/xlink" xmlns="http://www.w3.org/2000/svg" fill="none" viewBox="0 0 68 68" height="68" width="68">
<path fill="#373FFE" d="M2.51099 44.0257L2.17123 43.6382L2.6843 43.1299C3.8758 42.0482 4.88117 40.9466 6.03709 40.1249C6.03709 40.1249 6.05844 40.1115 6.10114 40.0726C18.1827 31.5255 28.4934 35.5876 32.8366 38.1125C32.8651 38.12 32.8864 38.1334 32.8935 38.1409C32.9006 38.1483 32.9006 38.1483 32.9078 38.1558C34.3251 38.9298 35.1077 39.5181 35.1077 39.5181L31.1383 43.7L24.0221 51.1685C23.1466 52.0858 22.1586 52.8044 21.1024 53.3213C21.0938 53.3213 21.0881 53.3288 21.081 53.3288C17.2304 55.2321 12.4971 54.506 9.31691 51.1685L2.51099 44.0257Z" clip-rule="evenodd" fill-rule="evenodd"></path>
<path fill="#5686FF" d="M65.4287 45.5871C65.1434 47.0965 64.5499 48.5405 63.649 49.7934C63.6488 49.8008 63.6411 49.8079 63.6333 49.8151C63.6256 49.8222 63.6197 49.8295 63.6138 49.8367C63.608 49.8439 63.6021 49.8511 63.5943 49.8582C63.1888 50.4158 62.7252 50.9436 62.1965 51.4326C59.984 53.4714 57.1378 54.4411 54.3164 54.3582C51.4996 54.2754 48.7167 53.1402 46.6278 50.975L39.281 43.3545C38.7638 42.8958 38.2732 42.4058 37.7824 41.9156C36.8015 40.9359 35.8201 39.9557 34.6249 39.224L34.6153 39.2177C34.5803 39.195 34.5407 39.1692 34.4999 39.1485C34.4051 39.0934 34.3085 39.0364 34.2084 38.9774C34.1058 38.9169 33.9996 38.8542 33.8881 38.7893H33.8807C33.8717 38.7818 33.8717 38.7818 33.8658 38.7818V38.7742C33.8583 38.7667 33.836 38.7516 33.8062 38.744C33.062 38.326 32.1539 37.8687 31.1 37.4355C30.9229 37.36 30.7458 37.2861 30.5612 37.2197C30.404 37.1554 30.2414 37.0977 30.0789 37.0401C30.0506 37.03 30.0223 37.02 29.9941 37.0099C29.0057 36.6507 27.9145 36.3217 26.7341 36.0757C26.5347 36.0229 26.3352 35.9851 26.1298 35.9489C25.7383 35.8659 25.3408 35.8055 24.927 35.7467C24.5579 35.6938 24.1828 35.6501 23.7987 35.6184C23.6588 35.5957 23.5189 35.5882 23.3789 35.5822C23.1497 35.5595 22.9219 35.5444 22.6853 35.5369C20.3691 35.4237 17.8252 35.635 15.1115 36.3594C14.8317 36.4334 14.5444 36.5164 14.2556 36.6054C13.556 36.8152 12.8474 37.0627 12.1314 37.3465C11.926 37.428 11.7266 37.511 11.5271 37.6C11.5011 37.6111 11.475 37.6222 11.4489 37.6333C11.2618 37.7128 11.0737 37.7928 10.8855 37.8762C10.8376 37.8983 10.7896 37.9203 10.7416 37.9423C10.5762 38.0182 10.4101 38.0943 10.244 38.175C10.1862 38.2035 10.128 38.2319 10.0696 38.2604C9.91127 38.3375 9.75152 38.4153 9.59495 38.498C8.38625 39.1108 7.15373 39.8367 5.90781 40.6819C5.89539 40.6895 5.88526 40.6975 5.87488 40.7057C5.86661 40.7123 5.85817 40.719 5.84827 40.7257C5.80511 40.7634 5.78278 40.7785 5.78278 40.7785C5.28113 41.115 4.77949 41.4818 4.27041 41.8712C3.71015 42.2998 3.22414 42.7286 2.69018 43.1996C2.53608 43.3355 2.37799 43.475 2.21297 43.619C1.92879 43.9421 3.19419 42.4522 3.19419 42.4522L16.0181 29.4501L16.0404 29.4214L16.8963 28.5521L25.259 20.0807C25.259 20.0807 25.2664 20.0732 25.2887 20.052C25.2962 20.0369 25.3111 20.0219 25.3185 20.0143L28.4296 16.866C29.4329 15.8488 30.5835 15.0715 31.816 14.5403C35.783 12.7986 40.5613 13.5774 43.8063 16.866L55.6396 28.8648L58.1595 31.2746L62.6062 35.7786C65.1232 38.3894 66.0649 42.1202 65.4398 45.5276C65.4363 45.5474 65.4324 45.5673 65.4287 45.5871Z"></path>
<path fill="#92B1FF" d="M51.696 52.2517C58.7118 48.7838 61.1274 39.5095 57.0914 31.5369C56.339 30.0505 55.4154 28.7143 54.3651 27.5464L62.8082 35.9991C66.456 39.738 66.7951 45.8017 63.851 49.8477C63.8508 49.855 63.843 49.8621 63.8353 49.8691C63.8275 49.8762 63.8216 49.8833 63.8158 49.8904C63.8099 49.8975 63.804 49.9047 63.7963 49.9117C63.3907 50.4627 62.9272 50.9842 62.3984 51.4675C60.186 53.4821 57.3397 54.4403 54.5183 54.3583C52.8116 54.3088 51.1173 53.8774 49.5823 53.0692C50.3012 52.8634 51.0079 52.5918 51.696 52.2517Z"></path>
</svg>